<?xml version="1.0" encoding="utf-8"?>
<!-- Generator: Adobe Illustrator 23.1.0, SVG Export Plug-In . SVG Version: 6.00 Build 0)  -->
<svg version="1.1" id="Layer_1" xmlns="http://www.w3.org/2000/svg" xmlns:xlink="http://www.w3.org/1999/xlink" x="0px" y="0px"
	 viewBox="0 0 566.9 566.9" style="enable-background:new 0 0 566.9 566.9;" xml:space="preserve">
<style type="text/css">
	.st0{fill-rule:evenodd;clip-rule:evenodd;fill:#333333;}
	.st1{fill:#333333;}
</style>
<path class="st0" d="M357.9,222c0,0-84.4,0-108.7,0.1c-32.4,1.4-41.2,43.2-41.2,43.2h5c0,0,7.9-12.8,19.3-18.4
	c9.7-4.7,23.3-2.3,23.3-2.3s-0.8,25.1-7.9,53.4c-7.1,28.4-42.9,52.5-18.9,65.5c26.7,14.4,34.7-35.1,37.7-74.6
	c1.8-24,2.4-44.3,2.4-44.3h32.7c0,0-4.1,41.1-6.2,68.2c-1,13.4-0.8,23.4-0.8,23.4s0.7,21.8,17.4,26.8c33.7,10.1,43.7-26.8,41.7-21.3
	c3.2-8.5,4-18.4,4-18.4h-5c0,0-2.6,19.1-18.9,18.4c-18.8-0.8-16.7-23.1-15.7-46.2c1-25,3.8-50.9,3.8-50.9h35.8V222z"/>
<g>
	<path class="st0" d="M283,90c-12.2,0-24.1,1.1-35.7,3.1l3.6,20.1c10.4-1.8,21.2-2.8,32.2-2.8c101.4,0,183.6,82.2,183.6,183.6
		S384.4,477.6,283,477.6S99.4,395.4,99.4,294.1c0-32.5,8.4-62.9,23.2-89.4l-17.9-10C88.3,224.1,79,258,79,294.1
		c0,112.7,91.3,204,204,204s204-91.3,204-204S395.7,90,283,90z"/>
</g>
<path class="st1" d="M85.4,178.4l20,11.5c29-50.1,78.7-86.7,137.4-98.1l-4.4-22.6C173,81.9,117.7,122.6,85.4,178.4z"/>
<rect x="208.1" y="381" class="st0" width="149.9" height="16"/>
<path class="st0" d="M216,164.1c8.7,0,15.7,7,15.7,15.7c0,8.7-7,15.7-15.7,15.7c-8.7,0-15.7-7-15.7-15.7
	C200.2,171.1,207.3,164.1,216,164.1z"/>
<path class="st0" d="M159,164.8c8.7,0,15.7,7,15.7,15.7c0,8.7-7,15.7-15.7,15.7c-8.7,0-15.7-7-15.7-15.7
	C143.3,171.9,150.3,164.8,159,164.8z"/>
<path class="st0" d="M210,225.7c0.6-8.7-6-16.2-14.6-16.8s-16.2,6-16.8,14.6c-0.1,1.5,0,2.9,0.3,4.2l21.6,11.3
	C205.7,236.9,209.6,231.8,210,225.7z"/>
<path class="st0" d="M251.9,215.6c4.2,0,10.4,0,17.6-0.1l-4.4-21.5c-8.2,0.6-14.6,7.4-14.6,15.7c0,2.1,0.4,4.1,1.2,5.9
	C251.7,215.6,251.8,215.6,251.9,215.6z"/>
<path class="st0" d="M243.6,150.7c4.9,0,9.2-2.2,12.1-5.7l-4.9-24.1c-2.2-1.1-4.6-1.7-7.2-1.7c-8.7,0-15.7,7-15.7,15.7
	C227.9,143.6,234.9,150.7,243.6,150.7z"/>
</svg>
