<?xml version="1.0" encoding="utf-8"?>
<!-- Generator: Adobe Illustrator 23.1.0, SVG Export Plug-In . SVG Version: 6.00 Build 0)  -->
<svg version="1.1" id="Layer_1" xmlns="http://www.w3.org/2000/svg" xmlns:xlink="http://www.w3.org/1999/xlink" x="0px" y="0px"
	 viewBox="0 0 566.9 566.9" style="enable-background:new 0 0 566.9 566.9;" xml:space="preserve">
<style type="text/css">
	.st0{fill-rule:evenodd;clip-rule:evenodd;fill:#333333;}
	.st1{fill-rule:evenodd;clip-rule:evenodd;fill:#FFFFFF;}
</style>
<path class="st0" d="M286.6,71.9c-14.7,0-29.1,1.4-43,4.1l-5.8-28.5c-81.6,16-149.2,71.2-182.2,145.1l26.6,11.8
	c-12.5,27.9-19.4,58.8-19.4,91.3c0,123.6,100.2,223.8,223.8,223.8s223.8-100.2,223.8-223.8S410.2,71.9,286.6,71.9z"/>
<path class="st1" d="M199.3,153.8c9.6,0,17.4,7.8,17.4,17.4c0,9.6-7.8,17.4-17.4,17.4c-9.6,0-17.4-7.8-17.4-17.4
	C181.9,161.6,189.7,153.8,199.3,153.8z"/>
<path class="st1" d="M125.9,153.8c9.6,0,17.4,7.8,17.4,17.4c0,9.6-7.8,17.4-17.4,17.4s-17.4-7.8-17.4-17.4
	C108.5,161.6,116.3,153.8,125.9,153.8z"/>
<path class="st1" d="M192.5,233.3c0-9.6-7.8-17.4-17.4-17.4c-9.6,0-17.4,7.8-17.4,17.4c0,1.6,0.2,3.2,0.6,4.7l24.7,10.9
	C188.6,246,192.5,240.1,192.5,233.3z"/>
<path class="st1" d="M249.2,212.5c4.7,0,11.5,0,19.5-0.1l-4.9-23.9c-9,0.6-16.2,8.2-16.2,17.4c0,2.3,0.5,4.5,1.3,6.6
	C249.1,212.6,249.2,212.5,249.2,212.5z"/>
<path class="st1" d="M241.5,141.8c5.4,0,10.2-2.4,13.4-6.3l-5.4-26.7c-2.4-1.2-5.1-1.9-7.9-1.9c-9.6,0-17.4,7.8-17.4,17.4
	C224,134,231.8,141.8,241.5,141.8z"/>
</svg>
