<?xml version="1.0" encoding="utf-8"?>
<!-- Generator: Adobe Illustrator 23.1.0, SVG Export Plug-In . SVG Version: 6.00 Build 0)  -->
<svg version="1.1" id="Layer_1" xmlns="http://www.w3.org/2000/svg" xmlns:xlink="http://www.w3.org/1999/xlink" x="0px" y="0px"
	 viewBox="0 0 595.28 841.89" style="enable-background:new 0 0 595.28 841.89;" xml:space="preserve">
<style type="text/css">
	.st0{fill-rule:evenodd;clip-rule:evenodd;fill:#FFFFFF;stroke:#333333;stroke-width:2.8346;stroke-miterlimit:10;}
</style>
<g id="Layer_3">
</g>
<g id="tin_ring_paths">
</g>
<g>
	<g>
		<path class="st0" d="M331.76,378.75c0,0-73.14-0.02-94.21,0.09c-28.12,1.24-35.68,37.4-35.68,37.4h4.3c0,0,6.84-11.1,16.77-15.91
			c8.44-4.09,20.21-2.01,20.21-2.01s-0.71,21.78-6.88,46.29c-6.2,24.61-37.21,45.5-16.34,56.75c23.11,12.46,30.09-30.44,32.7-64.65
			c1.59-20.8,2.12-38.39,2.12-38.39h28.37c0,0-3.56,35.6-5.34,59.12c-0.88,11.61-0.68,20.27-0.68,20.27s0.57,18.87,15.05,23.22
			c29.18,8.77,37.89-23.24,36.11-18.49c2.73-7.32,3.5-15.91,3.5-15.91h-4.36c0,0-2.28,16.51-16.34,15.91
			c-16.32-0.7-14.46-20.05-13.62-40.01c0.91-21.69,3.3-44.11,3.3-44.11h31.01L331.76,378.75L331.76,378.75z"/>
		<rect x="211.39" y="517.2" class="st0" width="116.22" height="14.17"/>
	</g>
</g>
</svg>
